<svg width="21" height="21" viewBox="0 0 21 21" fill="none" xmlns="http://www.w3.org/2000/svg">
<g id="eva:close-circle-outline">
<path id="Vector" d="M10.4766 1.74915C8.82492 1.74915 7.21032 2.23893 5.83698 3.15656C4.46365 4.0742 3.39326 5.37847 2.76118 6.90444C2.12911 8.4304 1.96373 10.1095 2.28596 11.7295C2.60819 13.3495 3.40355 14.8375 4.57148 16.0054C5.73941 17.1733 7.22744 17.9687 8.8474 18.2909C10.4674 18.6132 12.1465 18.4478 13.6725 17.8157C15.1984 17.1836 16.5027 16.1132 17.4203 14.7399C18.338 13.3666 18.8278 11.752 18.8278 10.1003C18.8278 9.00359 18.6117 7.91764 18.1921 6.90444C17.7724 5.89123 17.1572 4.97061 16.3818 4.19513C15.6063 3.41966 14.6857 2.80452 13.6725 2.38484C12.6593 1.96515 11.5733 1.74915 10.4766 1.74915ZM10.4766 16.7812C9.15526 16.7812 7.86358 16.3893 6.76491 15.6552C5.66624 14.9211 4.80993 13.8777 4.30427 12.6569C3.79861 11.4362 3.66631 10.0929 3.92409 8.79689C4.18187 7.50093 4.81817 6.3105 5.75251 5.37616C6.68685 4.44182 7.87727 3.80553 9.17324 3.54774C10.4692 3.28996 11.8125 3.42226 13.0333 3.92792C14.2541 4.43359 15.2975 5.28989 16.0316 6.38856C16.7657 7.48723 17.1575 8.77892 17.1575 10.1003C17.1575 11.8722 16.4536 13.5715 15.2007 14.8244C13.9478 16.0773 12.2485 16.7812 10.4766 16.7812Z" fill="white"/>
<path id="Vector_2" d="M12.7401 7.83748C12.6625 7.75921 12.5701 7.69708 12.4684 7.65468C12.3666 7.61228 12.2574 7.59045 12.1472 7.59045C12.037 7.59045 11.9278 7.61228 11.826 7.65468C11.7243 7.69708 11.6319 7.75921 11.5543 7.83748L10.477 8.92313L9.39968 7.83748C9.24243 7.68022 9.02914 7.59188 8.80675 7.59188C8.58436 7.59188 8.37108 7.68022 8.21382 7.83748C8.05657 7.99473 7.96822 8.20802 7.96822 8.43041C7.96822 8.6528 8.05657 8.86608 8.21382 9.02334L9.29947 10.1006L8.21382 11.1779C8.13555 11.2556 8.07342 11.3479 8.03102 11.4497C7.98863 11.5515 7.9668 11.6606 7.9668 11.7709C7.9668 11.8811 7.98863 11.9903 8.03102 12.092C8.07342 12.1938 8.13555 12.2862 8.21382 12.3638C8.29146 12.4421 8.38382 12.5042 8.48559 12.5466C8.58735 12.589 8.69651 12.6108 8.80675 12.6108C8.917 12.6108 9.02615 12.589 9.12792 12.5466C9.22968 12.5042 9.32205 12.4421 9.39968 12.3638L10.477 11.2781L11.5543 12.3638C11.6319 12.4421 11.7243 12.5042 11.826 12.5466C11.9278 12.589 12.037 12.6108 12.1472 12.6108C12.2574 12.6108 12.3666 12.589 12.4684 12.5466C12.5701 12.5042 12.6625 12.4421 12.7401 12.3638C12.8184 12.2862 12.8805 12.1938 12.9229 12.092C12.9653 11.9903 12.9872 11.8811 12.9872 11.7709C12.9872 11.6606 12.9653 11.5515 12.9229 11.4497C12.8805 11.3479 12.8184 11.2556 12.7401 11.1779L11.6545 10.1006L12.7401 9.02334C12.8184 8.9457 12.8805 8.85334 12.9229 8.75157C12.9653 8.64981 12.9872 8.54065 12.9872 8.43041C12.9872 8.32016 12.9653 8.21101 12.9229 8.10924C12.8805 8.00748 12.8184 7.91511 12.7401 7.83748Z" fill="white"/>
</g>
</svg>
