<svg width="56" height="52" viewBox="0 0 56 52" fill="none" xmlns="http://www.w3.org/2000/svg">
<g id="Group 138">
<path id="Rectangle 41" d="M41.8101 13.7245H12.9975V44.0535H41.8101V13.7245Z" fill="white"/>
<g id="Iconly/Bold/Arrow---Left-Circle">
<g id="Arrow---Left-Circle">
<g id="Vector">
<path d="M27.9096 1.91809L27.1601 1.92751C12.7177 2.29098 1.11893 13.1259 1.11893 26.4238C1.11893 39.9265 13.1211 50.9296 27.9096 50.9296C42.6712 50.9296 54.7002 39.9265 54.7002 26.4238C54.7002 12.8967 42.6712 1.91809 27.9096 1.91809ZM22.605 16.6215C23.4087 15.8864 24.6679 15.8864 25.4448 16.6215L34.7948 25.125C35.1698 25.4681 35.3841 25.9337 35.3841 26.4238C35.3841 26.9139 35.1698 27.3795 34.7948 27.7226L25.4448 36.2261C25.0698 36.5937 24.5607 36.7652 24.0517 36.7652C23.5159 36.7652 23.0069 36.5937 22.605 36.2261C21.8281 35.4909 21.8281 34.3392 22.6318 33.6285L30.535 26.4238L22.6318 19.2191C21.8281 18.5085 21.8281 17.3322 22.605 16.6215Z" fill="#110F2D"/>
<path d="M27.9029 1.38736V1.38732H27.9096C42.9185 1.38732 55.231 12.5597 55.231 26.4238C55.231 40.2632 42.9188 51.4603 27.9096 51.4603C12.8732 51.4603 0.588165 40.2628 0.588165 26.4238C0.588165 12.7953 12.4612 1.7665 27.1467 1.39691L27.1467 1.39687L27.1534 1.39679L27.9029 1.38736ZM25.0877 17.0142L25.0876 17.0143L25.08 17.0071C24.5111 16.4688 23.5677 16.4603 22.9633 17.0132C22.418 17.512 22.417 18.3207 22.9834 18.8215L22.9834 18.8215L22.9894 18.8269L30.8926 26.0316L31.3229 26.4238L30.8926 26.8161L22.9894 34.0208L22.9894 34.0208L22.9834 34.0261C22.4219 34.5226 22.4119 35.3096 22.9666 35.8375C23.2582 36.1027 23.633 36.2345 24.0517 36.2345C24.4457 36.2345 24.8133 36.1019 25.0733 35.847L25.0804 35.8401L25.0877 35.8335L34.4365 27.331C34.4368 27.3308 34.437 27.3306 34.4372 27.3303C34.7091 27.0813 34.8534 26.7552 34.8534 26.4238C34.8534 26.0925 34.7091 25.7664 34.4372 25.5173C34.437 25.5171 34.4368 25.5169 34.4365 25.5167L25.0877 17.0142Z" stroke="white" stroke-opacity="0.24" stroke-width="1.06154"/>
</g>
</g>
</g>
</g>
</svg>
