<svg width="57" height="52" viewBox="0 0 57 52" fill="none" xmlns="http://www.w3.org/2000/svg">
<g id="Group 139">
<path id="Rectangle 41" d="M14.8896 8.72449H43.7022V39.0535H14.8896V8.72449Z" fill="white"/>
<g id="Iconly/Bold/Arrow---Left-Circle">
<g id="Arrow---Left-Circle">
<g id="Vector">
<path d="M28.7906 1.91809L29.5401 1.92751C43.9825 2.29098 55.5813 13.1259 55.5813 26.4238C55.5813 39.9265 43.5791 50.9296 28.7906 50.9296C14.029 50.9296 2 39.9265 2 26.4238C2 12.8967 14.029 1.91809 28.7906 1.91809ZM34.0952 16.6215C33.2915 15.8864 32.0323 15.8864 31.2554 16.6215L21.9054 25.125C21.5304 25.4681 21.316 25.9337 21.316 26.4238C21.316 26.9139 21.5304 27.3795 21.9054 27.7226L31.2554 36.2261C31.6304 36.5937 32.1395 36.7652 32.6485 36.7652C33.1843 36.7652 33.6933 36.5937 34.0952 36.2261C34.8721 35.4909 34.8721 34.3392 34.0684 33.6285L26.1652 26.4238L34.0684 19.2191C34.8721 18.5085 34.8721 17.3322 34.0952 16.6215Z" fill="#110F2D"/>
<path d="M28.7973 1.38736V1.38732H28.7906C13.7817 1.38732 1.46923 12.5597 1.46923 26.4238C1.46923 40.2632 13.7814 51.4603 28.7906 51.4603C43.827 51.4603 56.112 40.2628 56.112 26.4238C56.112 12.7953 44.239 1.7665 29.5535 1.39691L29.5535 1.39687L29.5468 1.39679L28.7973 1.38736ZM31.6125 17.0142L31.6126 17.0143L31.6202 17.0071C32.1891 16.4688 33.1325 16.4603 33.7369 17.0132C34.2822 17.512 34.2832 18.3207 33.7168 18.8215L33.7168 18.8215L33.7108 18.8269L25.8076 26.0316L25.3773 26.4238L25.8076 26.8161L33.7108 34.0208L33.7108 34.0208L33.7168 34.0261C34.2783 34.5226 34.2883 35.3096 33.7336 35.8375C33.442 36.1027 33.0672 36.2345 32.6485 36.2345C32.2545 36.2345 31.8869 36.1019 31.6269 35.847L31.6198 35.8401L31.6125 35.8335L22.2637 27.331C22.2634 27.3308 22.2632 27.3306 22.263 27.3303C21.9911 27.0813 21.8468 26.7552 21.8468 26.4238C21.8468 26.0925 21.9911 25.7664 22.263 25.5173C22.2632 25.5171 22.2634 25.5169 22.2637 25.5167L31.6125 17.0142Z" stroke="white" stroke-opacity="0.24" stroke-width="1.06154"/>
</g>
</g>
</g>
</g>
</svg>
