<svg xmlns="http://www.w3.org/2000/svg" enable-background="new 0 0 48 48" viewBox="0 0 48 48" id="Invest">
  <path d="M46.8,29.2c-1-1-2.6-1-3.6,0L32.7,39.7h-2.3H18.9v-2h11.5c1.4,0,2.5-1.1,2.5-2.5c0-1.4-1.1-2.5-2.5-2.5h-6.6l-0.3-0.4c-1.5-2-3.8-3.1-6.2-3.1s-4.7,1.1-6.2,3.1l-0.3,0.4H9.4v12.1h24.4c0.7,0,1.3-0.3,1.8-0.7l11.2-11.2C47.7,31.8,47.7,30.2,46.8,29.2z" fill="#516aff" class="color000000 svgShape"></path>
  <polygon points=".5 30.1 .5 47.5 7.4 47.5 7.4 46.7 7.4 30.6 7.4 30.1" fill="#516aff" class="color000000 svgShape"></polygon>
  <path d="M30.1,0.5c-7.2,0-13,5.8-13,13c0,7.2,5.8,13,13,13c7.2,0,13-5.8,13-13C43.1,6.3,37.3,0.5,30.1,0.5z M36.4,7.3h-2.2C34.6,8,35,8.7,35.2,9.6h1.2v2h-1.2c-0.5,2.4-2.6,4.2-5.1,4.2h-3.2l6.2,6.3l-1.4,1.4L24,15.8h-0.1v-0.1l-0.2-0.2l0.2-0.2v-1.5H30c1.4,0,2.6-0.9,3.1-2.2h-8.6v-2h8.6c-0.4-1.3-1.6-2.2-3.1-2.2h-5.6h-0.5v-2h0.5H30h6.3V7.3z" fill="#516aff" class="color000000 svgShape"></path>
</svg>
