<svg xmlns="http://www.w3.org/2000/svg" id="signup" viewBox="0 0 79.07 79.07">
  <defs>
    <linearGradient id="linear-gradient" x1="18.28" x2="60.8" y1="39.54" y2="39.54" gradientUnits="userSpaceOnUse">
      <stop offset="0" stop-color="#516aff" class="stopColorffcb00 svgShape"></stop>
      <stop offset="1" stop-color="#ff1cee" class="stopColorfe3b06 svgShape"></stop>
    </linearGradient>
  </defs>
  <path d="M22.9,51.32l.79-.79-.79-.79c-.39-.39-.39-1.02,0-1.41s1.02-.39,1.41,0l.79,.79,.79-.79c.39-.39,1.02-.39,1.41,0s.39,1.02,0,1.41l-.79,.79,.79,.79c.39,.39,.39,1.02,0,1.41-.2,.2-.45,.29-.71,.29s-.51-.1-.71-.29l-.79-.79-.79,.79c-.2,.2-.45,.29-.71,.29s-.51-.1-.71-.29c-.39-.39-.39-1.02,0-1.41Zm7.22,1.41c.2,.2,.45,.29,.71,.29s.51-.1,.71-.29l.79-.79,.79,.79c.2,.2,.45,.29,.71,.29s.51-.1,.71-.29c.39-.39,.39-1.02,0-1.41l-.79-.79,.79-.79c.39-.39,.39-1.02,0-1.41s-1.02-.39-1.41,0l-.79,.79-.79-.79c-.39-.39-1.02-.39-1.41,0s-.39,1.02,0,1.41l.79,.79-.79,.79c-.39,.39-.39,1.02,0,1.41Zm7.22,0c.2,.2,.45,.29,.71,.29s.51-.1,.71-.29l.79-.79,.79,.79c.2,.2,.45,.29,.71,.29s.51-.1,.71-.29c.39-.39,.39-1.02,0-1.41l-.79-.79,.79-.79c.39-.39,.39-1.02,0-1.41s-1.02-.39-1.41,0l-.79,.79-.79-.79c-.39-.39-1.02-.39-1.41,0s-.39,1.02,0,1.41l.79,.79-.79,.79c-.39,.39-.39,1.02,0,1.41Zm7.22,0c.2,.2,.45,.29,.71,.29s.51-.1,.71-.29l.79-.79,.79,.79c.2,.2,.45,.29,.71,.29s.51-.1,.71-.29c.39-.39,.39-1.02,0-1.41l-.79-.79,.79-.79c.39-.39,.39-1.02,0-1.41s-1.02-.39-1.41,0l-.79,.79-.79-.79c-.39-.39-1.02-.39-1.41,0s-.39,1.02,0,1.41l.79,.79-.79,.79c-.39,.39-.39,1.02,0,1.41Zm7.22,0c.2,.2,.45,.29,.71,.29s.51-.1,.71-.29l.79-.79,.79,.79c.2,.2,.45,.29,.71,.29s.51-.1,.71-.29c.39-.39,.39-1.02,0-1.41l-.79-.79,.79-.79c.39-.39,.39-1.02,0-1.41s-1.02-.39-1.41,0l-.79,.79-.79-.79c-.39-.39-1.02-.39-1.41,0s-.39,1.02,0,1.41l.79,.79-.79,.79c-.39,.39-.39,1.02,0,1.41Zm-28.87,14.99c.2,.2,.45,.29,.71,.29s.51-.1,.71-.29l.79-.79,.79,.79c.2,.2,.45,.29,.71,.29s.51-.1,.71-.29c.39-.39,.39-1.02,0-1.41l-.79-.79,.79-.79c.39-.39,.39-1.02,0-1.41s-1.02-.39-1.41,0l-.79,.79-.79-.79c-.39-.39-1.02-.39-1.41,0s-.39,1.02,0,1.41l.79,.79-.79,.79c-.39,.39-.39,1.02,0,1.41Zm7.22,0c.2,.2,.45,.29,.71,.29s.51-.1,.71-.29l.79-.79,.79,.79c.2,.2,.45,.29,.71,.29s.51-.1,.71-.29c.39-.39,.39-1.02,0-1.41l-.79-.79,.79-.79c.39-.39,.39-1.02,0-1.41s-1.02-.39-1.41,0l-.79,.79-.79-.79c-.39-.39-1.02-.39-1.41,0s-.39,1.02,0,1.41l.79,.79-.79,.79c-.39,.39-.39,1.02,0,1.41Zm7.22,0c.2,.2,.45,.29,.71,.29s.51-.1,.71-.29l.79-.79,.79,.79c.2,.2,.45,.29,.71,.29s.51-.1,.71-.29c.39-.39,.39-1.02,0-1.41l-.79-.79,.79-.79c.39-.39,.39-1.02,0-1.41s-1.02-.39-1.41,0l-.79,.79-.79-.79c-.39-.39-1.02-.39-1.41,0s-.39,1.02,0,1.41l.79,.79-.79,.79c-.39,.39-.39,1.02,0,1.41Zm7.22,0c.2,.2,.45,.29,.71,.29s.51-.1,.71-.29l.79-.79,.79,.79c.2,.2,.45,.29,.71,.29s.51-.1,.71-.29c.39-.39,.39-1.02,0-1.41l-.79-.79,.79-.79c.39-.39,.39-1.02,0-1.41s-1.02-.39-1.41,0l-.79,.79-.79-.79c-.39-.39-1.02-.39-1.41,0s-.39,1.02,0,1.41l.79,.79-.79,.79c-.39,.39-.39,1.02,0,1.41Zm7.22,0c.2,.2,.45,.29,.71,.29s.51-.1,.71-.29l.79-.79,.79,.79c.2,.2,.45,.29,.71,.29s.51-.1,.71-.29c.39-.39,.39-1.02,0-1.41l-.79-.79,.79-.79c.39-.39,.39-1.02,0-1.41s-1.02-.39-1.41,0l-.79,.79-.79-.79c-.39-.39-1.02-.39-1.41,0s-.39,1.02,0,1.41l.79,.79-.79,.79c-.39,.39-.39,1.02,0,1.41ZM21.99,24.55c0-9.38,7.63-17.02,17.01-17.02s17.02,7.63,17.02,17.02c0,4.66-1.85,9.01-5.2,12.23,0,0,0,0,0,0s0,0,0,0c0,0,0,0,0,0-.38,.37-.78,.72-1.19,1.05-.07,.06-.15,.11-.22,.17-.25,.2-.51,.4-.76,.58-.09,.06-.19,.12-.29,.18-.09,.06-.18,.11-.27,.17-.34,.22-.7,.42-1.05,.62-.1,.05-.2,.11-.3,.16-.42,.21-.84,.41-1.27,.59-.03,.01-.06,.03-.09,.04-.48,.19-.96,.36-1.45,.51-.09,.03-.18,.05-.26,.07-.39,.11-.78,.21-1.18,.29-.15,.03-.29,.06-.44,.08-.36,.06-.72,.12-1.09,.16-.15,.02-.29,.04-.44,.05-.5,.04-1,.07-1.51,.07-4.07,0-8.01-1.46-11.09-4.12-3.76-3.24-5.92-7.94-5.92-12.89Zm12.53,9.12c-3.44,.96-4.29,1.43-4.46,1.55,0,0-.2,.21-.4,1.06,.11,.09,.22,.18,.33,.26,.15,.12,.31,.23,.47,.34,.2,.14,.4,.27,.61,.4,.16,.1,.32,.2,.49,.3,.21,.12,.43,.23,.65,.34,.17,.08,.33,.17,.5,.25,.22,.1,.45,.2,.68,.29,.17,.07,.34,.14,.51,.2,.24,.09,.48,.16,.72,.23,.17,.05,.34,.11,.52,.16,.25,.07,.51,.12,.77,.17,.17,.04,.33,.08,.5,.11,.28,.05,.57,.08,.86,.12,.14,.02,.28,.04,.43,.05,.43,.04,.87,.06,1.31,.06s.86-.02,1.28-.06c.13-.01,.25-.03,.37-.04,.31-.03,.61-.07,.91-.13,.13-.02,.26-.05,.39-.07,.3-.06,.61-.13,.9-.21,.11-.03,.22-.06,.33-.09,.36-.1,.71-.22,1.05-.35,.05-.02,.09-.03,.14-.05,.82-.31,1.6-.7,2.35-1.15,.06-.04,.12-.07,.17-.11,.3-.19,.59-.38,.88-.59,.1-.08,.21-.15,.31-.23,.23-.18,.46-.36,.68-.56,.07-.06,.14-.12,.21-.19-.14-.4-.25-.52-.25-.52-.16-.11-1.01-.59-4.46-1.55l-.61-.16c-.12-.03-.2-.06-.27-.08l-.11-.03c-.09,.15-.2,.28-.33,.41-.01,.01-.03,.03-.04,.04-.13,.13-.27,.24-.43,.35-.03,.02-.05,.03-.08,.05-.36,.24-.8,.43-1.29,.56,0,0-.02,0-.02,0-.24,.06-.5,.11-.78,.15-.01,0-.02,0-.04,0-.28,.03-.57,.06-.88,.06-1,0-1.94-.2-2.66-.56-.11-.06-.2-.13-.3-.2-.13-.08-.27-.16-.38-.25-.08-.07-.14-.16-.22-.23-.1-.11-.2-.21-.28-.33-.01-.02-.03-.03-.04-.05-.05,.01-.11,.03-.16,.04l-.84,.23Zm-.63-14.3c.06-.11,.12-.21,.18-.31,.03-.04,.06-.09,.09-.13,.07-.09,.13-.17,.21-.25,.04-.04,.07-.08,.11-.12,.08-.08,.16-.14,.25-.21,.04-.03,.08-.06,.12-.09,.12-.08,.26-.15,.4-.2,.01,0,.02-.01,.03-.02,0,0,0,0,0,0,0,0,0,0,0,0,.01,0,.02,0,.04,0,.96-.34,2-.15,3.1,.06,1.28,.24,2.59,.48,3.9-.04,.04-.02,.08-.02,.12-.03,.05-.01,.1-.03,.15-.04,.17-.02,.74-.03,1.37,.49h0s0,0,0,0c.07,.06,.14,.13,.21,.2-.12-1.03-.46-1.74-1.02-2.12-.21-.14-.36-.37-.41-.62,0-.01-.21-.79-1.17-1.41-.61-.4-2.33-.74-3.76-.4-.79,.19-1.35,.54-1.64,1.06-.76,1.32-1.36,1.62-1.91,1.81-.03,.01-.07,.02-.1,.04h0s-.1,.16-.27,.73c-.15,.48-.14,1.07-.05,1.69,.02-.03,.03-.06,.05-.09Zm1.25,4.1s0,0,0,0c.01,.06,.58,4.3,3.05,5.38,0,0,.01,0,.02,0,.16,.07,.33,.12,.51,.16,.02,0,.04,.01,.07,.02,.2,.04,.4,.06,.62,.06s.4-.02,.59-.05c.01,0,.02,0,.03,0,2.78-.56,3.56-4.86,3.67-5.56,0-.09-.02-.17-.03-.25-.02-.2-.04-.4-.06-.58-.01-.07-.02-.13-.03-.2-.03-.18-.05-.35-.08-.51,0-.05-.02-.09-.03-.13-.03-.16-.07-.31-.1-.44,0-.03-.02-.05-.03-.08-.04-.13-.08-.26-.12-.37,0,0,0-.02-.01-.03-.19-.51-.38-.75-.49-.85-.02,0-.04,0-.06,.02-1.69,.54-3.29,.25-4.6,0-.84-.16-1.63-.3-2.08-.14-.07,.02-.13,.08-.2,.15-.43,.51-.7,2.11-.65,3.4Zm2.44,7.31c-.09,.74-.22,1.22-.34,1.54,0,0,0,0,0,0,.01,.02,.03,.04,.05,.06,.02,.02,.04,.05,.06,.07,.03,.03,.07,.05,.11,.08,.02,.01,.04,.03,.06,.04,.05,.03,.11,.06,.17,.09,.02,0,.03,.02,.05,.02,.07,.03,.15,.06,.23,.09,0,0,.01,0,.02,0,.38,.13,.87,.21,1.42,.21,.68,0,1.28-.13,1.68-.31,0,0,.02,0,.02-.01,.07-.03,.13-.07,.19-.1,.01,0,.02-.02,.04-.03,.05-.03,.09-.06,.13-.1,.01-.01,.02-.03,.03-.04,.03-.03,.06-.06,.08-.09-.12-.32-.25-.8-.35-1.54-.54,.2-1.15,.32-1.83,.32s-1.28-.12-1.83-.33Zm-13.59-6.24c0,3.83,1.46,7.48,4.05,10.25,.24-.57,.53-.98,.89-1.22,.25-.17,1.02-.71,5.09-1.84l.32-.09c.12-.03,.24-.07,.36-.09l.07-.02c.29-.08,.51-.14,.69-.18,.07-.3,.18-.88,.23-1.84-1.84-1.91-2.39-4.94-2.51-5.7-.41-.84-1.94-4.21-1.19-6.63,.44-1.42,.89-1.8,1.61-2.06,.18-.07,.39-.14,.85-.93,.57-.99,1.58-1.68,2.91-2,1.96-.47,4.25-.03,5.32,.67,1.19,.77,1.7,1.73,1.91,2.27,2.27,1.88,1.74,5.76,1.11,8.57-.06,.45-.57,3.77-2.56,5.82,.05,.94,.15,1.52,.24,1.84,.17,.04,.37,.09,.6,.15l.2,.06c.08,.02,.2,.05,.32,.08l.3,.08c4.08,1.13,4.86,1.68,5.11,1.86,.22,.15,.41,.38,.58,.65,2.3-2.69,3.54-6.08,3.54-9.68,0-8.28-6.74-15.02-15.02-15.02s-15.01,6.74-15.01,15.02Zm.31,19.95h30.47c3.32,0,6.02,2.7,6.02,6.02s-2.7,6.03-6.02,6.03H24.3c-3.32,0-6.03-2.7-6.03-6.03s2.7-6.02,6.03-6.02Zm-4.03,6.02c0,2.22,1.81,4.03,4.03,4.03h30.47c2.22,0,4.02-1.81,4.02-4.03s-1.81-4.02-4.02-4.02H24.3c-2.22,0-4.03,1.81-4.03,4.02Zm-2,14.99c0-3.32,2.7-6.03,6.03-6.03h30.47c3.32,0,6.02,2.7,6.02,6.03s-2.7,6.03-6.02,6.03H24.3c-3.32,0-6.03-2.7-6.03-6.03Zm2,0c0,2.22,1.81,4.03,4.03,4.03h30.47c2.22,0,4.02-1.81,4.02-4.03s-1.81-4.03-4.02-4.03H24.3c-2.22,0-4.03,1.81-4.03,4.03Z" fill="url(#linear-gradient)"></path>
  <path d="M22.9,51.32l.79-.79-.79-.79c-.39-.39-.39-1.02,0-1.41s1.02-.39,1.41,0l.79,.79,.79-.79c.39-.39,1.02-.39,1.41,0s.39,1.02,0,1.41l-.79,.79,.79,.79c.39,.39,.39,1.02,0,1.41-.2,.2-.45,.29-.71,.29s-.51-.1-.71-.29l-.79-.79-.79,.79c-.2,.2-.45,.29-.71,.29s-.51-.1-.71-.29c-.39-.39-.39-1.02,0-1.41Zm7.22,1.41c.2,.2,.45,.29,.71,.29s.51-.1,.71-.29l.79-.79,.79,.79c.2,.2,.45,.29,.71,.29s.51-.1,.71-.29c.39-.39,.39-1.02,0-1.41l-.79-.79,.79-.79c.39-.39,.39-1.02,0-1.41s-1.02-.39-1.41,0l-.79,.79-.79-.79c-.39-.39-1.02-.39-1.41,0s-.39,1.02,0,1.41l.79,.79-.79,.79c-.39,.39-.39,1.02,0,1.41Zm7.22,0c.2,.2,.45,.29,.71,.29s.51-.1,.71-.29l.79-.79,.79,.79c.2,.2,.45,.29,.71,.29s.51-.1,.71-.29c.39-.39,.39-1.02,0-1.41l-.79-.79,.79-.79c.39-.39,.39-1.02,0-1.41s-1.02-.39-1.41,0l-.79,.79-.79-.79c-.39-.39-1.02-.39-1.41,0s-.39,1.02,0,1.41l.79,.79-.79,.79c-.39,.39-.39,1.02,0,1.41Zm7.22,0c.2,.2,.45,.29,.71,.29s.51-.1,.71-.29l.79-.79,.79,.79c.2,.2,.45,.29,.71,.29s.51-.1,.71-.29c.39-.39,.39-1.02,0-1.41l-.79-.79,.79-.79c.39-.39,.39-1.02,0-1.41s-1.02-.39-1.41,0l-.79,.79-.79-.79c-.39-.39-1.02-.39-1.41,0s-.39,1.02,0,1.41l.79,.79-.79,.79c-.39,.39-.39,1.02,0,1.41Zm7.22,0c.2,.2,.45,.29,.71,.29s.51-.1,.71-.29l.79-.79,.79,.79c.2,.2,.45,.29,.71,.29s.51-.1,.71-.29c.39-.39,.39-1.02,0-1.41l-.79-.79,.79-.79c.39-.39,.39-1.02,0-1.41s-1.02-.39-1.41,0l-.79,.79-.79-.79c-.39-.39-1.02-.39-1.41,0s-.39,1.02,0,1.41l.79,.79-.79,.79c-.39,.39-.39,1.02,0,1.41Zm-28.87,14.99c.2,.2,.45,.29,.71,.29s.51-.1,.71-.29l.79-.79,.79,.79c.2,.2,.45,.29,.71,.29s.51-.1,.71-.29c.39-.39,.39-1.02,0-1.41l-.79-.79,.79-.79c.39-.39,.39-1.02,0-1.41s-1.02-.39-1.41,0l-.79,.79-.79-.79c-.39-.39-1.02-.39-1.41,0s-.39,1.02,0,1.41l.79,.79-.79,.79c-.39,.39-.39,1.02,0,1.41Zm7.22,0c.2,.2,.45,.29,.71,.29s.51-.1,.71-.29l.79-.79,.79,.79c.2,.2,.45,.29,.71,.29s.51-.1,.71-.29c.39-.39,.39-1.02,0-1.41l-.79-.79,.79-.79c.39-.39,.39-1.02,0-1.41s-1.02-.39-1.41,0l-.79,.79-.79-.79c-.39-.39-1.02-.39-1.41,0s-.39,1.02,0,1.41l.79,.79-.79,.79c-.39,.39-.39,1.02,0,1.41Zm7.22,0c.2,.2,.45,.29,.71,.29s.51-.1,.71-.29l.79-.79,.79,.79c.2,.2,.45,.29,.71,.29s.51-.1,.71-.29c.39-.39,.39-1.02,0-1.41l-.79-.79,.79-.79c.39-.39,.39-1.02,0-1.41s-1.02-.39-1.41,0l-.79,.79-.79-.79c-.39-.39-1.02-.39-1.41,0s-.39,1.02,0,1.41l.79,.79-.79,.79c-.39,.39-.39,1.02,0,1.41Zm7.22,0c.2,.2,.45,.29,.71,.29s.51-.1,.71-.29l.79-.79,.79,.79c.2,.2,.45,.29,.71,.29s.51-.1,.71-.29c.39-.39,.39-1.02,0-1.41l-.79-.79,.79-.79c.39-.39,.39-1.02,0-1.41s-1.02-.39-1.41,0l-.79,.79-.79-.79c-.39-.39-1.02-.39-1.41,0s-.39,1.02,0,1.41l.79,.79-.79,.79c-.39,.39-.39,1.02,0,1.41Zm7.22,0c.2,.2,.45,.29,.71,.29s.51-.1,.71-.29l.79-.79,.79,.79c.2,.2,.45,.29,.71,.29s.51-.1,.71-.29c.39-.39,.39-1.02,0-1.41l-.79-.79,.79-.79c.39-.39,.39-1.02,0-1.41s-1.02-.39-1.41,0l-.79,.79-.79-.79c-.39-.39-1.02-.39-1.41,0s-.39,1.02,0,1.41l.79,.79-.79,.79c-.39,.39-.39,1.02,0,1.41ZM21.99,24.55c0-9.38,7.63-17.02,17.01-17.02s17.02,7.63,17.02,17.02c0,4.66-1.85,9.01-5.2,12.23,0,0,0,0,0,0s0,0,0,0c0,0,0,0,0,0-.38,.37-.78,.72-1.19,1.05-.07,.06-.15,.11-.22,.17-.25,.2-.51,.4-.76,.58-.09,.06-.19,.12-.29,.18-.09,.06-.18,.11-.27,.17-.34,.22-.7,.42-1.05,.62-.1,.05-.2,.11-.3,.16-.42,.21-.84,.41-1.27,.59-.03,.01-.06,.03-.09,.04-.48,.19-.96,.36-1.45,.51-.09,.03-.18,.05-.26,.07-.39,.11-.78,.21-1.18,.29-.15,.03-.29,.06-.44,.08-.36,.06-.72,.12-1.09,.16-.15,.02-.29,.04-.44,.05-.5,.04-1,.07-1.51,.07-4.07,0-8.01-1.46-11.09-4.12-3.76-3.24-5.92-7.94-5.92-12.89Zm12.53,9.12c-3.44,.96-4.29,1.43-4.46,1.55,0,0-.2,.21-.4,1.06,.11,.09,.22,.18,.33,.26,.15,.12,.31,.23,.47,.34,.2,.14,.4,.27,.61,.4,.16,.1,.32,.2,.49,.3,.21,.12,.43,.23,.65,.34,.17,.08,.33,.17,.5,.25,.22,.1,.45,.2,.68,.29,.17,.07,.34,.14,.51,.2,.24,.09,.48,.16,.72,.23,.17,.05,.34,.11,.52,.16,.25,.07,.51,.12,.77,.17,.17,.04,.33,.08,.5,.11,.28,.05,.57,.08,.86,.12,.14,.02,.28,.04,.43,.05,.43,.04,.87,.06,1.31,.06s.86-.02,1.28-.06c.13-.01,.25-.03,.37-.04,.31-.03,.61-.07,.91-.13,.13-.02,.26-.05,.39-.07,.3-.06,.61-.13,.9-.21,.11-.03,.22-.06,.33-.09,.36-.1,.71-.22,1.05-.35,.05-.02,.09-.03,.14-.05,.82-.31,1.6-.7,2.35-1.15,.06-.04,.12-.07,.17-.11,.3-.19,.59-.38,.88-.59,.1-.08,.21-.15,.31-.23,.23-.18,.46-.36,.68-.56,.07-.06,.14-.12,.21-.19-.14-.4-.25-.52-.25-.52-.16-.11-1.01-.59-4.46-1.55l-.61-.16c-.12-.03-.2-.06-.27-.08l-.11-.03c-.09,.15-.2,.28-.33,.41-.01,.01-.03,.03-.04,.04-.13,.13-.27,.24-.43,.35-.03,.02-.05,.03-.08,.05-.36,.24-.8,.43-1.29,.56,0,0-.02,0-.02,0-.24,.06-.5,.11-.78,.15-.01,0-.02,0-.04,0-.28,.03-.57,.06-.88,.06-1,0-1.94-.2-2.66-.56-.11-.06-.2-.13-.3-.2-.13-.08-.27-.16-.38-.25-.08-.07-.14-.16-.22-.23-.1-.11-.2-.21-.28-.33-.01-.02-.03-.03-.04-.05-.05,.01-.11,.03-.16,.04l-.84,.23Zm-.63-14.3c.06-.11,.12-.21,.18-.31,.03-.04,.06-.09,.09-.13,.07-.09,.13-.17,.21-.25,.04-.04,.07-.08,.11-.12,.08-.08,.16-.14,.25-.21,.04-.03,.08-.06,.12-.09,.12-.08,.26-.15,.4-.2,.01,0,.02-.01,.03-.02,0,0,0,0,0,0,0,0,0,0,0,0,.01,0,.02,0,.04,0,.96-.34,2-.15,3.1,.06,1.28,.24,2.59,.48,3.9-.04,.04-.02,.08-.02,.12-.03,.05-.01,.1-.03,.15-.04,.17-.02,.74-.03,1.37,.49h0s0,0,0,0c.07,.06,.14,.13,.21,.2-.12-1.03-.46-1.74-1.02-2.12-.21-.14-.36-.37-.41-.62,0-.01-.21-.79-1.17-1.41-.61-.4-2.33-.74-3.76-.4-.79,.19-1.35,.54-1.64,1.06-.76,1.32-1.36,1.62-1.91,1.81-.03,.01-.07,.02-.1,.04h0s-.1,.16-.27,.73c-.15,.48-.14,1.07-.05,1.69,.02-.03,.03-.06,.05-.09Zm1.25,4.1s0,0,0,0c.01,.06,.58,4.3,3.05,5.38,0,0,.01,0,.02,0,.16,.07,.33,.12,.51,.16,.02,0,.04,.01,.07,.02,.2,.04,.4,.06,.62,.06s.4-.02,.59-.05c.01,0,.02,0,.03,0,2.78-.56,3.56-4.86,3.67-5.56,0-.09-.02-.17-.03-.25-.02-.2-.04-.4-.06-.58-.01-.07-.02-.13-.03-.2-.03-.18-.05-.35-.08-.51,0-.05-.02-.09-.03-.13-.03-.16-.07-.31-.1-.44,0-.03-.02-.05-.03-.08-.04-.13-.08-.26-.12-.37,0,0,0-.02-.01-.03-.19-.51-.38-.75-.49-.85-.02,0-.04,0-.06,.02-1.69,.54-3.29,.25-4.6,0-.84-.16-1.63-.3-2.08-.14-.07,.02-.13,.08-.2,.15-.43,.51-.7,2.11-.65,3.4Zm2.44,7.31c-.09,.74-.22,1.22-.34,1.54,0,0,0,0,0,0,.01,.02,.03,.04,.05,.06,.02,.02,.04,.05,.06,.07,.03,.03,.07,.05,.11,.08,.02,.01,.04,.03,.06,.04,.05,.03,.11,.06,.17,.09,.02,0,.03,.02,.05,.02,.07,.03,.15,.06,.23,.09,0,0,.01,0,.02,0,.38,.13,.87,.21,1.42,.21,.68,0,1.28-.13,1.68-.31,0,0,.02,0,.02-.01,.07-.03,.13-.07,.19-.1,.01,0,.02-.02,.04-.03,.05-.03,.09-.06,.13-.1,.01-.01,.02-.03,.03-.04,.03-.03,.06-.06,.08-.09-.12-.32-.25-.8-.35-1.54-.54,.2-1.15,.32-1.83,.32s-1.28-.12-1.83-.33Zm-13.59-6.24c0,3.83,1.46,7.48,4.05,10.25,.24-.57,.53-.98,.89-1.22,.25-.17,1.02-.71,5.09-1.84l.32-.09c.12-.03,.24-.07,.36-.09l.07-.02c.29-.08,.51-.14,.69-.18,.07-.3,.18-.88,.23-1.84-1.84-1.91-2.39-4.94-2.51-5.7-.41-.84-1.94-4.21-1.19-6.63,.44-1.42,.89-1.8,1.61-2.06,.18-.07,.39-.14,.85-.93,.57-.99,1.58-1.68,2.91-2,1.96-.47,4.25-.03,5.32,.67,1.19,.77,1.7,1.73,1.91,2.27,2.27,1.88,1.74,5.76,1.11,8.57-.06,.45-.57,3.77-2.56,5.82,.05,.94,.15,1.52,.24,1.84,.17,.04,.37,.09,.6,.15l.2,.06c.08,.02,.2,.05,.32,.08l.3,.08c4.08,1.13,4.86,1.68,5.11,1.86,.22,.15,.41,.38,.58,.65,2.3-2.69,3.54-6.08,3.54-9.68,0-8.28-6.74-15.02-15.02-15.02s-15.01,6.74-15.01,15.02Zm.31,19.95h30.47c3.32,0,6.02,2.7,6.02,6.02s-2.7,6.03-6.02,6.03H24.3c-3.32,0-6.03-2.7-6.03-6.03s2.7-6.02,6.03-6.02Zm-4.03,6.02c0,2.22,1.81,4.03,4.03,4.03h30.47c2.22,0,4.02-1.81,4.02-4.03s-1.81-4.02-4.02-4.02H24.3c-2.22,0-4.03,1.81-4.03,4.02Zm-2,14.99c0-3.32,2.7-6.03,6.03-6.03h30.47c3.32,0,6.02,2.7,6.02,6.03s-2.7,6.03-6.02,6.03H24.3c-3.32,0-6.03-2.7-6.03-6.03Zm2,0c0,2.22,1.81,4.03,4.03,4.03h30.47c2.22,0,4.02-1.81,4.02-4.03s-1.81-4.03-4.02-4.03H24.3c-2.22,0-4.03,1.81-4.03,4.03Z" fill="url(#linear-gradient)"></path>
</svg>
