<svg xmlns="http://www.w3.org/2000/svg" viewBox="0 0 128 128" id="Stake">
  <circle cx="63.785" cy="37.325" r="1.999" transform="rotate(-22.5 63.785 37.325)" fill="#516aff" class="color000000 svgShape"></circle>
  <circle cx="48.076" cy="75.152" r="1.999" transform="rotate(-22.5 48.076 75.152)" fill="#516aff" class="color000000 svgShape"></circle>
  <circle cx="86.153" cy="90.924" r="1.999" transform="rotate(-22.5 86.153 90.924)" fill="#516aff" class="color000000 svgShape"></circle>
  <circle cx="101.924" cy="75.152" r="1.999" transform="rotate(-67.5 101.924 75.152)" fill="#516aff" class="color000000 svgShape"></circle>
  <circle cx="101.924" cy="52.847" r="1.999" transform="rotate(-22.5 101.924 52.848)" fill="#516aff" class="color000000 svgShape"></circle>
  <circle cx="86.153" cy="37.075" r="1.999" transform="rotate(-67.5 86.153 37.075)" fill="#516aff" class="color000000 svgShape"></circle>
  <path d="M75 11a52.667 52.667 0 0 0-25.015 6.29 7.329 7.329 0 0 1 2.741 3.088A48.673 48.673 0 0 1 73 15.06v10.581a38.178 38.178 0 0 0-18.213 5.694 11.005 11.005 0 0 1 2.08 2.94c.056.117.11.244.166.37A34.2 34.2 0 0 1 73 29.641v10.59a23.746 23.746 0 0 0-13.081 5.299 13.969 13.969 0 0 1-.762 5.686c.095.167.186.322.281.487a19.853 19.853 0 1 1 9.483 31.192 40.32 40.32 0 0 1-.418 4.054 23.883 23.883 0 0 0 4.497.813v10.593a34.38 34.38 0 0 1-7.642-1.311 30.753 30.753 0 0 1-2.08 3.55A38.263 38.263 0 0 0 73 102.37v10.576a48.689 48.689 0 0 1-17.93-4.2 30.837 30.837 0 0 1-4.269 2.383A52.99 52.99 0 1 0 75 11zm48.95 51h-10.573a38.276 38.276 0 0 0-9.841-23.707l7.476-7.477A48.806 48.806 0 0 1 123.95 62zM77 15.05a48.806 48.806 0 0 1 31.184 12.938l-7.477 7.476A38.276 38.276 0 0 0 77 25.624zm0 25.183v-10.6a34.284 34.284 0 0 1 20.874 8.665l-7.49 7.489A23.746 23.746 0 0 0 77 40.233zm16.213 8.382 7.49-7.489A34.284 34.284 0 0 1 109.365 62h-10.6a23.746 23.746 0 0 0-5.553-13.385zM98.767 66h10.6a34.284 34.284 0 0 1-8.665 20.874l-7.489-7.49A23.746 23.746 0 0 0 98.767 66zM77 87.767a23.746 23.746 0 0 0 13.385-5.554l7.489 7.49A34.284 34.284 0 0 1 77 98.365zm0 25.182v-10.572a38.276 38.276 0 0 0 23.707-9.841l7.477 7.476A48.806 48.806 0 0 1 77 112.95zm34.012-15.765-7.476-7.477A38.276 38.276 0 0 0 113.376 66h10.573a48.806 48.806 0 0 1-12.937 31.184zm-74.36-12.64c-1.275-.354-2.479-.688-2.917-1.395a1.348 1.348 0 0 1-.048-1.43c.524-.786 1.991-.98 3.163-.766.74.134 1.278.724 2.05.748a2 2 0 0 0 1.156-3.674 6.95 6.95 0 0 0-2.126-.923V75a2 2 0 0 0-4 0v2.125a5.82 5.82 0 0 0-3.564 2.363 5.315 5.315 0 0 0-.029 5.773c1.26 2.03 3.47 2.644 5.244 3.137 1.812.504 2.632.803 2.877 1.55.212.647-.527 1.15-.946 1.324a3.857 3.857 0 0 1-3.154-.214 2 2 0 0 0-1.834 3.554 8.092 8.092 0 0 0 1.406.551V97a2 2 0 0 0 4 0v-1.686a7.051 7.051 0 0 0 1.119-.35 5.097 5.097 0 0 0 3.21-6.264c-.94-2.859-3.638-3.608-5.608-4.156z" fill="#516aff" class="color000000 svgShape"></path>
  <path d="M73.092 78.259a2 2 0 0 0 3.816 0c.025-.078 2.505-7.821 8.4-12.246a2 2 0 0 0 .052-3.159c-.05-.04-5.005-4.094-8.491-13.228a2 2 0 0 0-3.764.072 30.637 30.637 0 0 1-8.456 13.15 2 2 0 0 0 .043 3.165c5.864 4.402 8.376 12.17 8.4 12.246zm1.97-22.826a38.159 38.159 0 0 0 6.06 8.875A30.284 30.284 0 0 0 75 72.592a30.307 30.307 0 0 0-6.1-8.264 35.2 35.2 0 0 0 6.162-8.895zM64.934 82.58c.61-12.436-3.134-18.863-7.874-27a829.62 829.62 0 0 1-2.428-4.224 8.278 8.278 0 0 0 1.337-5.192 8.986 8.986 0 0 0-2.278-5.064 7.403 7.403 0 0 0-.427-5.087 7.873 7.873 0 0 0-4.545-3.84A6.546 6.546 0 0 0 46.743 32a70.977 70.977 0 0 1 2.174-5.616 4.857 4.857 0 0 0-.021-4.684A3.927 3.927 0 0 0 45.41 20H25.74a4.056 4.056 0 0 0-3.565 1.783 4.823 4.823 0 0 0-.044 4.705c.455 1.005 2.328 4.819 2.746 5.762a21.28 21.28 0 0 0-6.414 2.024c-4.135 2.293-6.202 2.774-7.208 2.774H5.546a2 2 0 1 0 0 4h5.709c2.21 0 5.117-1.04 9.146-3.275A17.905 17.905 0 0 1 27.61 36h20.13a4.005 4.005 0 0 1 1.93 1.773 4.095 4.095 0 0 1-.12 3.195 2.022 2.022 0 0 0 .613 2.253 5.481 5.481 0 0 1 1.824 3.327 5.182 5.182 0 0 1-1.551 3.771A2.016 2.016 0 0 0 50.482 53a3.313 3.313 0 0 1 .062 4.875 2.998 2.998 0 0 0-.714 2.348c-.021 2.14-.336 2.688-1.677 2.848l-18.29.92a17.47 17.47 0 0 1-7.493-1.676l-1.454-.77c-3.13-1.659-6.701-3.354-9.466-3.354H2a2 2 0 0 0 0 4h9.268a37.74 37.74 0 0 0-4.202 20.387c.856 17.541 13.46 26.433 24.808 27.27a56.687 56.687 0 0 0 8.254 0c11.348-.837 23.95-9.729 24.806-27.27zM45.256 24.772A77.243 77.243 0 0 0 42.524 32H29.12c-.605-1.517-2.9-6.205-3.348-7.165-.326-.698-.115-.835-.032-.835h19.67a1.636 1.636 0 0 1-.155.772zm-5.42 81.087a52.063 52.063 0 0 1-7.668 0c-9.971-.736-20.365-8.28-21.107-23.477a34.144 34.144 0 0 1 4.169-19.147c1.578.661 3.09 1.462 3.813 1.845l1.455.77A21.842 21.842 0 0 0 29.491 68c.194 0 19.005-.943 19.044-.947 3.474-.38 5.255-2.665 5.295-6.792v-.046a7.879 7.879 0 0 0 .725-.984c4.075 7.052 6.897 12.698 6.384 23.152-.741 15.196-11.134 22.74-21.103 23.476z" fill="#516aff" class="color000000 svgShape"></path>
</svg>
